<svg xmlns="http://www.w3.org/2000/svg" width="18" height="18" viewBox="0 0 18 18">
  <defs>
    <style>
      .cls-1 {
        fill: #9d9d9d;
        fill-rule: evenodd;
      }
    </style>
  </defs>
  <path class="cls-1" d="M1016.62,42.458a4.871,4.871,0,1,1,3.42-1.423A4.673,4.673,0,0,1,1016.62,42.458Zm9.99,3.182-3.71-3.712a7.651,7.651,0,0,0-.89-9.713,7.593,7.593,0,0,0-2.43-1.623,7.6,7.6,0,0,0-5.92,0,7.75,7.75,0,0,0-2.44,1.623,7.634,7.634,0,0,0-1.62,2.435,7.6,7.6,0,0,0,0,5.92A7.63,7.63,0,0,0,1011.22,43a7.75,7.75,0,0,0,2.44,1.624,7.488,7.488,0,0,0,2.96.6,7.408,7.408,0,0,0,4.32-1.342l3.71,3.7a1.277,1.277,0,0,0,.97.411,1.4,1.4,0,0,0,1.39-1.385,1.313,1.313,0,0,0-.4-0.974h0Z" transform="translate(-1009 -30)"/>
</svg>
